<mxfile host="app.diagrams.net" agent="Mozilla/5.0 (Windows NT 10.0; Win64; x64) AppleWebKit/537.36 (KHTML, like Gecko) Chrome/135.0.0.0 Safari/537.36" version="26.2.8">
  <diagram name="Page-1" id="IQCEPkqNTFw5ugs9CZrg">
    <mxGraphModel dx="788" dy="425" grid="1" gridSize="10" guides="1" tooltips="1" connect="1" arrows="1" fold="1" page="1" pageScale="1" pageWidth="850" pageHeight="1100" math="0" shadow="0">
      <root>
        <mxCell id="0" />
        <mxCell id="1" parent="0" />
        <mxCell id="VlT2E3_PzOU_bGx9aqNG-5" style="edgeStyle=orthogonalEdgeStyle;rounded=0;orthogonalLoop=1;jettySize=auto;html=1;entryX=0.5;entryY=0;entryDx=0;entryDy=0;" edge="1" parent="1" source="VlT2E3_PzOU_bGx9aqNG-1" target="VlT2E3_PzOU_bGx9aqNG-2">
          <mxGeometry relative="1" as="geometry" />
        </mxCell>
        <mxCell id="VlT2E3_PzOU_bGx9aqNG-1" value="3 wires" style="whiteSpace=wrap;html=1;" vertex="1" parent="1">
          <mxGeometry x="20" y="110" width="120" height="60" as="geometry" />
        </mxCell>
        <mxCell id="VlT2E3_PzOU_bGx9aqNG-6" style="edgeStyle=orthogonalEdgeStyle;rounded=0;orthogonalLoop=1;jettySize=auto;html=1;" edge="1" parent="1" source="VlT2E3_PzOU_bGx9aqNG-2" target="VlT2E3_PzOU_bGx9aqNG-3">
          <mxGeometry relative="1" as="geometry" />
        </mxCell>
        <mxCell id="VlT2E3_PzOU_bGx9aqNG-2" value="Are there red wires?" style="whiteSpace=wrap;html=1;" vertex="1" parent="1">
          <mxGeometry x="20" y="210" width="120" height="60" as="geometry" />
        </mxCell>
        <mxCell id="VlT2E3_PzOU_bGx9aqNG-8" style="edgeStyle=orthogonalEdgeStyle;rounded=0;orthogonalLoop=1;jettySize=auto;html=1;entryX=0.5;entryY=0;entryDx=0;entryDy=0;" edge="1" parent="1" source="VlT2E3_PzOU_bGx9aqNG-3" target="VlT2E3_PzOU_bGx9aqNG-4">
          <mxGeometry relative="1" as="geometry" />
        </mxCell>
        <mxCell id="VlT2E3_PzOU_bGx9aqNG-3" value="Is the last wire white?" style="whiteSpace=wrap;html=1;" vertex="1" parent="1">
          <mxGeometry x="20" y="320" width="120" height="60" as="geometry" />
        </mxCell>
        <mxCell id="VlT2E3_PzOU_bGx9aqNG-4" value="Is there 2+ blue wires?" style="whiteSpace=wrap;html=1;" vertex="1" parent="1">
          <mxGeometry x="20" y="430" width="120" height="60" as="geometry" />
        </mxCell>
      </root>
    </mxGraphModel>
  </diagram>
</mxfile>
